<svg id="Layer_1" data-name="Layer 1" xmlns="http://www.w3.org/2000/svg" viewBox="0 0 415.6 309.73"><defs><style>.cls-1{fill:#fff;}</style></defs><title>ads</title><path class="cls-1" d="M195.29,122.44C215.5,71.21,233.36,19.51,259.21,0l16.21,7.29C261.09,82,249.57,155.81,249.57,209.39c0,49.58,9.87,82,36.19,82,12.92,0,21.38-8.22,26.79-21.85l20,7c-8.69,21.86-23.5,33.13-43.71,33.13-46.29,0-62.75-38.54-62.75-99.17,0-5.87.23-12,.47-18.09-.7-21.62-9.4-37.37-21.85-47.94-23.5,61.57-55,118.91-119.15,118.91C27.5,263.44,0,220,0,174.37,0,124.79,32.67,73.09,94.24,73.09c33.84,0,53.58,17.15,61.1,39A109.12,109.12,0,0,1,195.29,122.44Zm-61.1-9.4c-5.87-16.22-19.5-28.67-41.13-28.67-45.83,0-71.68,47.47-71.68,91.42,0,39.25,20.21,75.91,65.1,75.91,50.29,0,79.2-56.4,103.64-116.56a88.43,88.43,0,0,0-31.49-7.52,53.15,53.15,0,0,1,.23,6.11c0,27.5-16.21,56.17-45.59,65.33l-8-19c21.15-6.58,32-27.5,32-47.71V129c-27.73,4.7-52.88,21.62-59,48.41l-20.45-6.35C65.57,137.48,98.47,117.27,134.19,113Zm118-89.77c-16.21,26.56-28,67.45-42.77,108.34a67.88,67.88,0,0,1,20,25.15c4.23-40,12.69-85.31,23-133.48Z"/><path class="cls-1" d="M336.71,26.73h18.17c-.92,19.55-9.2,66.7-19.09,104.88-4.37,24.61-6.21,39.1-6.21,46.69,0,4.83.69,6.67,2.3,6.67,5.29,0,12.19-13.11,19.55-32.2,1.38,0,6.44,1.84,6.44,3.22-14,36.8-27.14,52.9-37.72,52.9-7.36,0-11.5-6.67-11.5-22.54v-2.53c-5.29,14-13.34,26.22-26.45,26.22-11.27,0-15.87-12.65-15.87-29.21,0-32.43,17.48-80.27,39.33-80.27,8.51,0,13.34,5.06,14.95,15.41Zm-51.06,151.8c0,7.13,1.38,12,4.6,12,10.58,0,23.69-37.49,23.69-58.88,0-8.51-2.07-14.49-7.13-14.49C296.92,117.12,285.65,157.83,285.65,178.53Z"/><path class="cls-1" d="M358.56,184.28c3,5.06,5.75,6.9,10.12,6.9,5.75,0,9-4.14,9-12.42,0-14.26-6.67-28.06-11.73-44.39-2.53,7.59-5.52,14.72-8.05,21.62,0,0-6.44-1.15-6.44-3v-.23c3-7.82,7.36-18.17,11.73-29.21a96.61,96.61,0,0,1-2.76-22.08,98.36,98.36,0,0,1,5.29-30.59l15.64,3a286.84,286.84,0,0,1-6.9,33.58c.69,19.32,23.23,43.24,23.23,69v.92c4.37-7.13,8.05-15.64,11.5-24.61,1.38,0,6.44,1.84,6.44,3.22-10.58,27.6-23.46,54-48.3,54-10.81,0-19.55-6.21-22.77-15.64Z"/></svg>