<svg id="Layer_1" data-name="Layer 1" xmlns="http://www.w3.org/2000/svg" viewBox="0 0 474.29 268.66"><defs><style>.cls-1{fill:#fff;}</style></defs><title>logos</title><path class="cls-1" d="M112.5,157.28c2-11,3.6-23.4,5.18-37.13C128.7,19.13,149.18,0,176.85,0c21.83,0,32.85,19.8,32.85,46.13,0,40.05-25.43,94.73-76.73,116.55-4.73,22.05-11,38.93-18.23,52,22.05,9.9,40.28,22,63.68,22,15.08,0,23.63-12.37,25.88-22.28l18.23,4.73c-5.85,20.7-21.38,34.43-43.65,34.43-26.55,0-48.15-15.75-71.55-27.45-15.75,20.93-34.65,27.45-53.1,27.45-20.25,0-30.6-11.93-30.6-24.53,0-13.28,11.7-27,35.55-27a119.56,119.56,0,0,1,38.93,6.3c4.5-10.12,8.33-22.73,11.7-38.48a130,130,0,0,1-25.43,2.47c-59.63,0-84.38-31.73-84.38-63C0,79,23.4,48.83,60.53,48.83c10.58,0,17.78,2,26.1,6.75l-8.78,18A32.53,32.53,0,0,0,60.3,68.85C34,68.85,18,89.78,18,111.6c0,24.08,19.58,49.5,66.38,49.5A101.18,101.18,0,0,0,112.5,157.28Zm-20,62.1a84.28,84.28,0,0,0-31.28-6.3c-14,0-21.15,8.55-21.15,16.42,0,6.75,5.63,13.28,17.1,13.28C70.43,242.78,82.35,236.26,92.48,219.38Zm47.25-99.23c-.9,9.23-2.25,17.78-3.6,25.88,37.8-24.53,54.45-73.8,54.45-105.53,0-17.1-5-29.25-14-29.25C164.25,11.25,150.08,23.4,139.73,120.15Z"/><path class="cls-1" d="M268.65,149.63c-5.18,13.5-15.3,23-26.1,26.78-7.65,16.42-19.13,26.1-33.53,26.1-15.53,0-22.28-16.2-22.28-36.68a128.31,128.31,0,0,1,7-40.05l8.1,2c2.48-17.33,11.93-32.4,27.9-32.4,15.08,0,23,17.33,23,37.58,0,11-2.7,22.5-5.62,32.4,5.85-2.7,11.25-8.33,15.3-18.9C263.7,146.48,268.65,148.28,268.65,149.63Zm-46.58,27c-9.45-3.6-15.53-12.6-18.68-23.4a75,75,0,0,0-.68,9.68c0,13.28,3.6,22.5,9.23,22.5a5,5,0,0,0,1.8-.22C216.68,184.28,219.38,181.13,222.08,176.63Zm-9-36.23c0,12.15,3.6,23.85,13.73,26.78,5-11.93,8.33-27.68,8.33-39.6,0-10.13-2.48-17.78-8.78-17.78-.45,0-1.12.23-1.58.23C218.25,111.38,213.08,126,213.08,140.4Z"/><path class="cls-1" d="M344,149.4v.23c-8.55,22.05-20.92,38-33.08,50.63l-5,29c-3.83,22.73-12.38,39.38-26.78,39.38-10.12,0-17.33-5.85-17.33-17.78,0-15.53,14.4-28.35,31.05-44.33,1.35-6.75,2.25-14,3.6-20.93-5.62,10.13-13.05,16.88-22.28,16.88-11,0-15.53-12.15-15.53-28.58,0-31.73,17.33-78.53,38.7-78.53,7,0,10.8,4.05,12.38,11.93l2-9.68H330.3c-2.7,9.9-10.13,51.75-16.65,87.53,9.45-10.8,18.23-23.4,24.08-38.7C339.75,146.48,344,148.05,344,149.4ZM279,256.73c3.83,0,5.63-4.5,7-11.47l4.5-24.08c-9.45,9.9-16,18.67-16,29.47C274.5,254.93,276.75,256.73,279,256.73Zm-1.35-85.05c0,7,1.35,11.7,4.72,11.7,10.35,0,23.18-36.68,23.18-57.6,0-8.33-2-14.18-7-14.18C289.12,111.6,277.65,151.2,277.65,171.68Z"/><path class="cls-1" d="M417.82,149.63c-5.18,13.5-15.3,23-26.1,26.78-7.65,16.42-19.13,26.1-33.53,26.1-15.53,0-22.28-16.2-22.28-36.68a128.32,128.32,0,0,1,7-40.05l8.1,2c2.47-17.33,11.93-32.4,27.9-32.4,15.08,0,23,17.33,23,37.58,0,11-2.7,22.5-5.62,32.4,5.85-2.7,11.25-8.33,15.3-18.9C412.87,146.48,417.82,148.28,417.82,149.63Zm-46.58,27c-9.45-3.6-15.53-12.6-18.68-23.4a75,75,0,0,0-.67,9.68c0,13.28,3.6,22.5,9.22,22.5a5,5,0,0,0,1.8-.22C365.85,184.28,368.55,181.13,371.25,176.63Zm-9-36.23c0,12.15,3.6,23.85,13.73,26.78,5-11.93,8.33-27.68,8.33-39.6,0-10.13-2.47-17.78-8.78-17.78-.45,0-1.12.23-1.58.23C367.42,111.38,362.25,126,362.25,140.4Z"/><path class="cls-1" d="M418.49,177.3c2.92,5,5.63,6.75,9.9,6.75,5.63,0,8.78-4,8.78-12.15,0-14-6.52-27.45-11.47-43.43-2.48,7.43-5.4,14.4-7.88,21.15,0,0-6.3-1.12-6.3-2.92v-.23c2.92-7.65,7.2-17.78,11.48-28.58a94.59,94.59,0,0,1-2.7-21.6,96.22,96.22,0,0,1,5.17-29.93l15.3,2.92A280.55,280.55,0,0,1,434,102.15c.67,18.9,22.73,42.3,22.73,67.5v.9c4.27-7,7.88-15.3,11.25-24.08,1.35,0,6.3,1.8,6.3,3.15-10.35,27-23,52.88-47.25,52.88-10.58,0-19.12-6.08-22.28-15.3Z"/></svg>