<svg id="Layer_1" data-name="Layer 1" xmlns="http://www.w3.org/2000/svg" viewBox="0 0 429.61 264.61"><defs><style>.cls-1{fill:#fff;}</style></defs><title>print</title><path class="cls-1" d="M142.88,40.42C127.14,68.15,123.38,113,117.74,155.57c32-4.23,53.34-40.42,53.34-75.44,0-34.55-20.92-68.39-73.08-68.39-53.81,0-78.73,40.89-78.73,75.91,0,26.56,14.33,49.82,40.89,49.82A43.69,43.69,0,0,0,70,136.3l3.76,20.21a42.11,42.11,0,0,1-14.57,2.35C20.68,158.86,0,127.37,0,92.35,0,48.88,32,0,100.81,0c64.39,0,91.65,39.71,91.65,80.37,0,42.3-29.37,85.54-76.61,87.42-7.52,51.7-20,96.82-63,96.82-27.26,0-42.3-15.75-42.3-39.71,0-19,13.16-37.83,36.9-38.78v19.27c-12.22,1.41-20,13.16-20,24,0,15.28,11.51,23.74,24.67,23.74,60.4,0,30.31-148.29,69.33-220Z"/><path class="cls-1" d="M235.73,193.53c5.06,0,13.11-12.19,23.23-38.64,1.15,0,6.44,1.61,6.44,3v.23c-10.12,26.22-18.17,52.9-37,52.9-10.81,0-15.18-6-15.18-16.79,0-13.11,10.81-31.74,10.81-43.47,0-7.82-3-13.57-6.44-19.09-7.36,28.52-17.25,59.8-25.07,80.5l-6.44-3.22c6.44-17,17.25-57,24.84-88.32a44.52,44.52,0,0,1-5.06-20.93c0-7.13,1.38-15.64,4.83-26.68l17.48,3.45c-.46,9.2-2.76,22.08-6,36.57,7.36,9,20.47,18.63,20.47,33.81,0,14.72-10.58,33.81-10.58,41.86C232.05,192.15,233.43,193.53,235.73,193.53Z"/><path class="cls-1" d="M289.32,105c-8.05,35.88-14.72,62.56-14.72,81.42,0,6.67,2.53,7.82,4.6,7.82,6,0,13.57-12.88,23.69-39.33,1.15,0,6.44,1.61,6.44,3v.23c-10.12,26.22-18.17,52.9-37,52.9-12.42,0-16.56-11.5-16.56-27.37,0-25.53,10.12-62.1,14-78.66ZM272.53,79.91c0-8.28,6-18.17,16.1-18.17,7.59,0,10.81,5.52,10.81,12,0,8.28-6,17.94-16.1,17.94C276,91.64,272.53,86.12,272.53,79.91Z"/><path class="cls-1" d="M291.39,209.86s2.07-20.93,8.51-38.18c4.6-26,8.51-49.22,11.27-66.7h19.78l-2.53,15.41c7.36-11,16.56-17.94,26.22-17.94,8,0,13.34,5.29,13.34,16.33,0,21.39-15,48.76-15,67.62,0,6.67,2.53,7.82,4.6,7.82,6,0,13.57-12.88,23.69-39.33,1.38,0,6.44,1.84,6.44,3.22-10.12,26.22-20.47,52.9-39.33,52.9-8,0-15.64-6.44-15.64-20.47,0-24.84,14.95-50.37,14.95-66.93,0-2.53-1.15-4.6-3.68-4.6-5.75,0-15.87,10.81-23.46,43.24l-9.2,47.61Z"/><path class="cls-1" d="M417,50.7a364,364,0,0,1-7.36,54.74,84.71,84.71,0,0,0,9-.46l-2.07,10.81a90,90,0,0,1-9.43.23c-2.07,8.74-4.37,17.71-7.13,27.14C397.65,159,396.5,171,396.5,179.5c0,9.66,1.61,14.72,4.6,14.72,6.21,0,15.18-21.62,22.08-39.33,1.38,0,6.44,2.07,6.44,3.22C416,194.91,408.92,211,394,211c-10.12,0-14.26-12.42-14.26-32,0-16.79,2.53-39.56,7.82-63a93,93,0,0,1-10.12-.23L379,105c1.61,0,5.52.23,10.35.23,3-15.87,6-31.28,11.27-54.51Z"/></svg>